<svg xmlns="http://www.w3.org/2000/svg" viewBox="0 0 238.1 60.49"><defs><style>.cls-1{fill:#3dae2b;}.cls-2{fill:#fff;}.cls-3{fill:#5f4b3c;}.cls-4{fill:#a50064;}.cls-5{fill:none;stroke:#c2c2c1;stroke-linecap:round;stroke-linejoin:round;stroke-width:0.49px;}</style></defs><title>DD_MH_color_hairline</title><g id="Layer_2" data-name="Layer 2"><g id="Layer_1-2" data-name="Layer 1"><path class="cls-1" d="M.84,46.51h.89c1.22,0,1.94.59,1.94,1.63a2.21,2.21,0,0,1-2.44,2.29H0Zm.45,3.56a1.77,1.77,0,0,0,2-1.87c0-.83-.56-1.32-1.54-1.32H1.17L.49,50.07Z"/><path class="cls-1" d="M4.54,49.31a.79.79,0,0,0,.86.86,1.14,1.14,0,0,0,1-.48l.29.21a1.46,1.46,0,0,1-1.28.6,1.12,1.12,0,0,1-1.25-1.17A1.81,1.81,0,0,1,6,47.48c.64,0,1,.3,1,.76s-.38.92-1.67.92a7.18,7.18,0,0,1-.76,0A1.15,1.15,0,0,0,4.54,49.31Zm.73-.48c1,0,1.32-.28,1.32-.58s-.22-.43-.65-.43a1.42,1.42,0,0,0-1.31,1A5.42,5.42,0,0,0,5.27,48.83Z"/><path class="cls-1" d="M7.44,49.83l.74-3.51h.09c.15,0,.29.07.22.41l-.66,3.1c-.06.28,0,.39.29.39,0,0,0,.27-.28.27S7.35,50.25,7.44,49.83Z"/><path class="cls-1" d="M9.05,49.46l.33-1.56H8.93L9,47.55h.44l.15-.67H10l-.14.67h.87l-.08.35H9.78l-.34,1.56c-.11.51.05.71.37.71a.54.54,0,0,0,.4-.18s.09.07.09.18a.25.25,0,0,1-.08.19.71.71,0,0,1-.47.14C9.21,50.5,8.91,50.15,9.05,49.46Z"/><path class="cls-1" d="M12.14,50.5A1.12,1.12,0,0,1,11,49.28a1.76,1.76,0,0,1,1.64-1.8,1.09,1.09,0,0,1,1,.6l0-.15c.06-.3.15-.41.32-.41a.34.34,0,0,1,.15,0l-.61,2.86h-.4l.12-.54A1.3,1.3,0,0,1,12.14,50.5Zm.45-2.68a1.36,1.36,0,0,0-1.21,1.45.81.81,0,0,0,.81.89,1.35,1.35,0,0,0,1.24-1.11l.11-.48A.94.94,0,0,0,12.59,47.82Z"/><path class="cls-1" d="M16.56,46.51h.9c1.21,0,1.94.59,1.94,1.63A2.21,2.21,0,0,1,17,50.43H15.72ZM17,50.07A1.77,1.77,0,0,0,19,48.2c0-.83-.56-1.32-1.53-1.32h-.54l-.68,3.19Z"/><path class="cls-1" d="M20.26,49.31a.8.8,0,0,0,.87.86,1.12,1.12,0,0,0,1-.48l.29.21a1.45,1.45,0,0,1-1.28.6,1.13,1.13,0,0,1-1.25-1.17,1.81,1.81,0,0,1,1.82-1.85c.65,0,1,.3,1,.76s-.38.92-1.68.92a7.18,7.18,0,0,1-.76,0C20.27,49.18,20.26,49.24,20.26,49.31Zm.73-.48c1,0,1.32-.28,1.32-.58s-.22-.43-.65-.43a1.42,1.42,0,0,0-1.31,1A5.42,5.42,0,0,0,21,48.83Z"/><path class="cls-1" d="M24.86,47.48a.93.93,0,0,1,1,1,6.09,6.09,0,0,1-.16.89l-.23,1.09h-.4l.25-1.15a4.14,4.14,0,0,0,.13-.76.62.62,0,0,0-.66-.68,1.14,1.14,0,0,0-1,.7l-.4,1.89H23l.61-2.89a.22.22,0,0,1,.09,0c.15,0,.29.08.22.42l0,.08A1.14,1.14,0,0,1,24.86,47.48Z"/><path class="cls-1" d="M26.71,49.46,27,47.9h-.45l.08-.35h.44l.14-.67h.4l-.15.67h.88l-.08.35h-.87l-.33,1.56c-.11.51,0,.71.37.71a.58.58,0,0,0,.4-.18s.09.07.09.18a.26.26,0,0,1-.09.19.66.66,0,0,1-.46.14C26.87,50.5,26.56,50.15,26.71,49.46Z"/><path class="cls-1" d="M29.79,50.5a1.12,1.12,0,0,1-1.15-1.22,1.75,1.75,0,0,1,1.63-1.8,1.11,1.11,0,0,1,1,.6l0-.15c.06-.3.15-.41.31-.41a.29.29,0,0,1,.15,0l-.61,2.86h-.39l.11-.54A1.28,1.28,0,0,1,29.79,50.5Zm.46-2.68A1.35,1.35,0,0,0,29,49.27a.81.81,0,0,0,.8.89,1.35,1.35,0,0,0,1.25-1.11l.1-.48A.93.93,0,0,0,30.25,47.82Z"/><path class="cls-1" d="M32.3,49.83l.75-3.51h.08c.15,0,.29.07.22.41l-.66,3.1c-.06.28,0,.39.29.39,0,0,0,.27-.28.27S32.21,50.25,32.3,49.83Z"/><path class="cls-1" d="M34.83,49.17a1.65,1.65,0,0,1,1.62-1.69,1.29,1.29,0,0,1,1.33,1.33,1.65,1.65,0,0,1-1.62,1.69A1.3,1.3,0,0,1,34.83,49.17Zm2.55-.34a1,1,0,0,0-1-1,1.28,1.28,0,0,0-1.2,1.33,1,1,0,0,0,1,1A1.28,1.28,0,0,0,37.38,48.83Z"/><path class="cls-1" d="M39,47.9h-.6l.08-.35h.6l.07-.35c.14-.62.47-.94.94-.94a.65.65,0,0,1,.51.17.25.25,0,0,1,.09.19c0,.14-.14.23-.15.21a.57.57,0,0,0-.47-.22c-.27,0-.45.18-.55.64l-.06.3h.72l-.07.35h-.72l-.53,2.53h-.4Z"/><path class="cls-1" d="M41.82,48.8A2.29,2.29,0,0,1,44,46.44a1.63,1.63,0,0,1,1.74,1.7,2.28,2.28,0,0,1-2.16,2.36A1.64,1.64,0,0,1,41.82,48.8Zm3.48-.63A1.29,1.29,0,0,0,44,46.8a1.86,1.86,0,0,0-1.69,2,1.29,1.29,0,0,0,1.35,1.37A1.86,1.86,0,0,0,45.3,48.17Z"/><path class="cls-1" d="M47.82,47.48c.22,0,.42.1.42.27a.26.26,0,0,1-.16.26.48.48,0,0,0-.38-.16c-.46,0-.78.59-1,1.41l-.25,1.17h-.39l.62-2.89a.15.15,0,0,1,.08,0c.15,0,.29.08.22.42l0,.12A.89.89,0,0,1,47.82,47.48Z"/><path class="cls-1" d="M48.78,49.31a.8.8,0,0,0,.87.86,1.12,1.12,0,0,0,1-.48l.29.21a1.45,1.45,0,0,1-1.28.6,1.13,1.13,0,0,1-1.25-1.17,1.81,1.81,0,0,1,1.82-1.85c.65,0,1,.3,1,.76s-.38.92-1.68.92a7.32,7.32,0,0,1-.76,0C48.79,49.18,48.78,49.24,48.78,49.31Zm.73-.48c1.05,0,1.32-.28,1.32-.58s-.21-.43-.65-.43a1.42,1.42,0,0,0-1.31,1A5.42,5.42,0,0,0,49.51,48.83Z"/><path class="cls-1" d="M54.3,47.93c.06-.3.16-.41.32-.41a.29.29,0,0,1,.15,0l-.6,2.81a1.42,1.42,0,0,1-1.47,1.26,1.47,1.47,0,0,1-1.07-.37.6.6,0,0,1-.21-.39c0-.27.28-.31.28-.28a1,1,0,0,0,1,.69,1,1,0,0,0,1-.94l.11-.48a1.28,1.28,0,0,1-1.06.56,1.19,1.19,0,0,1-1.2-1.28,1.7,1.7,0,0,1,1.62-1.67,1.09,1.09,0,0,1,1,.6Zm-1.07-.11A1.29,1.29,0,0,0,52,49.15a.86.86,0,0,0,.84.93,1.22,1.22,0,0,0,1.18-1l.12-.53A.94.94,0,0,0,53.23,47.82Z"/><path class="cls-1" d="M55.21,49.17a1.65,1.65,0,0,1,1.62-1.69,1.29,1.29,0,0,1,1.33,1.33,1.65,1.65,0,0,1-1.62,1.69A1.29,1.29,0,0,1,55.21,49.17Zm2.55-.34a1,1,0,0,0-.95-1,1.28,1.28,0,0,0-1.2,1.33,1,1,0,0,0,1,1A1.27,1.27,0,0,0,57.76,48.83Z"/><path class="cls-1" d="M60.46,47.48a.93.93,0,0,1,1,1,6.09,6.09,0,0,1-.16.89l-.24,1.09h-.39l.25-1.15a4.14,4.14,0,0,0,.13-.76.62.62,0,0,0-.66-.68,1.14,1.14,0,0,0-1,.7L59,50.43H58.6l.62-2.89a.15.15,0,0,1,.08,0c.15,0,.28.08.22.42l0,.08A1.14,1.14,0,0,1,60.46,47.48Z"/><path class="cls-1" d="M63.19,49.42c0-.71.49-1.08,1.27-1.27a1.26,1.26,0,0,1-.2-.66,1,1,0,0,1,1.08-1.05.82.82,0,0,1,.88.84c0,.56-.39.9-1.17,1.06l.87,1.12a2.47,2.47,0,0,0,.54-1.23l.36.05a3,3,0,0,1-.69,1.44l0,0a.71.71,0,0,0,.64.41.22.22,0,0,1-.24.29c-.3,0-.45-.16-.66-.43l0-.05a2,2,0,0,1-1.4.52C63.66,50.5,63.19,50.05,63.19,49.42Zm2.48.3-1-1.31c-.66.15-1,.46-1,1s.28.74.93.74A1.58,1.58,0,0,0,65.67,49.72Zm.17-2.44a.49.49,0,0,0-.54-.5.66.66,0,0,0-.65.68,1,1,0,0,0,.2.61C65.51,47.94,65.84,47.78,65.84,47.28Z"/><path class="cls-1" d="M68.11,50.43l2.32-3.92h.46l.79,3.92h-.43L71,49.15H69.32l-.74,1.28Zm2.83-1.64-.35-1.85-1.06,1.85Z"/><path class="cls-1" d="M72.46,49.83l.75-3.51h.08c.15,0,.29.07.22.41l-.66,3.1c-.06.28,0,.39.3.39a.26.26,0,0,1-.29.27C72.5,50.48,72.37,50.25,72.46,49.83Z"/><path class="cls-1" d="M75,50.5a1.12,1.12,0,0,1-1.16-1.22,1.76,1.76,0,0,1,1.64-1.8,1.09,1.09,0,0,1,1,.6l0-.15c.06-.3.15-.41.32-.41a.34.34,0,0,1,.15,0l-.61,2.86H76l.12-.54A1.3,1.3,0,0,1,75,50.5Zm.45-2.68a1.36,1.36,0,0,0-1.21,1.45.81.81,0,0,0,.81.89,1.35,1.35,0,0,0,1.24-1.11l.11-.48A.94.94,0,0,0,75.42,47.82Z"/><path class="cls-1" d="M77.17,49.85l.32-.22a1.08,1.08,0,0,0,1,.54c.45,0,.7-.2.7-.49s-.26-.37-.69-.51-.87-.32-.87-.84.45-.85,1.08-.85a1.41,1.41,0,0,1,1,.33.43.43,0,0,1,.14.3c0,.17-.21.23-.23.2a1,1,0,0,0-.9-.5c-.44,0-.67.23-.67.47s.29.4.72.55.85.32.85.8-.42.87-1.11.87A1.41,1.41,0,0,1,77.17,49.85Z"/><path class="cls-1" d="M81.46,49.83,80.88,49l-.32,1.48h-.39L81,46.32h.09c.15,0,.29.07.22.41l-.45,2.14,1.62-1.31h.59L81.33,49l.51.75c.27.4.35.43.63.44a.28.28,0,0,1-.29.32C81.93,50.48,81.83,50.38,81.46,49.83Z"/><path class="cls-1" d="M84.19,50.5A1.13,1.13,0,0,1,83,49.28a1.76,1.76,0,0,1,1.64-1.8,1.09,1.09,0,0,1,1,.6l0-.15c.06-.3.16-.41.32-.41a.29.29,0,0,1,.15,0l-.61,2.86h-.39l.11-.54A1.28,1.28,0,0,1,84.19,50.5Zm.46-2.68a1.35,1.35,0,0,0-1.21,1.45.8.8,0,0,0,.8.89,1.35,1.35,0,0,0,1.25-1.11l.1-.48A.93.93,0,0,0,84.65,47.82Z"/><rect class="cls-1" y="14.75" width="86.19" height="21.2"/><path class="cls-2" d="M26.25,23.34a4,4,0,0,0-2.81-.91l-2,0v5.77a13.34,13.34,0,0,0,4-.26A2.93,2.93,0,0,0,26.25,23.34Zm-2.7,3.14V24.26A1.14,1.14,0,1,1,23.55,26.48Z"/><path class="cls-2" d="M56.86,22.53h2.06a21.61,21.61,0,0,0,1.75,2.93V22.53h2c0,1.43,0,3.5,0,5.7H60.57c-.35-.59-1-1.77-1.66-2.72,0,.47,0,2,0,2.72H56.86C56.84,27.47,56.89,24,56.86,22.53Z"/><path class="cls-2" d="M15.13,20.51l3.43,5.8-1.25,1.92H10.39L9.28,26.37l2.47-3.91H14l-1.05-1.94ZM14,22.58l-2.12,3.73h4.33L14,22.5Z"/><polygon class="cls-2" points="42.49 22.46 42.49 22.46 40.53 22.46 40.53 22.46 38.45 28.23 40.45 28.23 41.51 24.79 42.57 28.23 44.58 28.23 42.49 22.46"/><polygon class="cls-2" points="70.72 22.46 70.72 22.46 68.76 22.46 68.76 22.46 66.67 28.23 68.68 28.23 69.74 24.79 70.8 28.23 72.8 28.23 70.72 22.46"/><polygon class="cls-2" points="31.27 28.23 27.36 28.23 27.36 22.46 31.27 22.46 31.27 24.01 29.45 24.01 29.45 24.58 31.06 24.58 31.06 26.08 29.46 26.08 29.46 26.65 31.27 26.65 31.27 28.23"/><path class="cls-2" d="M51.34,23.34a4,4,0,0,0-2.81-.91l-2,0v5.77a13.31,13.31,0,0,0,4-.26A2.93,2.93,0,0,0,51.34,23.34Zm-2.7,3.14V24.26A1.14,1.14,0,1,1,48.64,26.48Z"/><polygon class="cls-2" points="56.36 28.23 52.46 28.23 52.46 22.46 56.36 22.46 56.36 24.01 54.54 24.01 54.54 24.58 56.16 24.58 56.16 26.08 54.56 26.08 54.56 26.65 56.36 26.65 56.36 28.23"/><polygon class="cls-2" points="31.75 28.23 31.75 22.46 33.83 22.46 33.83 26.36 35.59 26.36 35.59 28.23 31.75 28.23"/><polygon class="cls-2" points="73.08 28.23 73.08 22.46 75.16 22.46 75.16 26.36 76.91 26.36 76.91 28.23 73.08 28.23"/><polygon class="cls-2" points="34.95 24.32 34.95 22.46 39.34 22.46 39.34 24.32 38.21 24.32 38.21 28.23 36.05 28.23 36.05 24.32 34.95 24.32"/><polygon class="cls-2" points="63.14 24.32 63.14 22.46 67.53 22.46 67.53 24.32 66.41 24.32 66.41 28.23 64.24 28.23 64.24 24.32 63.14 24.32"/><path class="cls-2" d="M76.8,22.89a.78.78,0,1,1,.78.78A.77.77,0,0,1,76.8,22.89Zm1.44,0a.66.66,0,1,0-.66.66A.66.66,0,0,0,78.24,22.89Zm-.29.42h-.14l-.26-.39h-.14v.39h-.12v-.85h.37c.16,0,.31,0,.31.23s-.12.23-.27.23Zm-.4-.51c.11,0,.3,0,.3-.12s-.12-.1-.21-.1h-.23v.22Z"/><path class="cls-3" d="M187.78,18.45a9,9,0,1,0,9,9A9,9,0,0,0,187.78,18.45Zm0,14.55a5.54,5.54,0,1,1,5.53-5.54A5.55,5.55,0,0,1,187.78,33Z"/><path class="cls-3" d="M169,21.91a3.4,3.4,0,0,1,3.39,3.41V36.19h3.46V25.3a6.86,6.86,0,0,0-12-4.58l0,0,0,0a6.87,6.87,0,0,0-12,4.58V36.19h3.47V25.32a3.4,3.4,0,1,1,6.79,0V36.19h3.46V25.32A3.41,3.41,0,0,1,169,21.91Z"/><path class="cls-3" d="M217.45,14.79a1.73,1.73,0,0,0-3.46,0v5.59l-.07-.05a8.87,8.87,0,0,0-5.48-1.88,9,9,0,1,0,9,9Zm-9,18.21A5.54,5.54,0,1,1,214,27.46,5.54,5.54,0,0,1,208.44,33Z"/><path class="cls-3" d="M203.64,41.55h1v2.31h2.71V41.55h1v5.8h-1V44.78h-2.71v2.57h-1Z"/><path class="cls-3" d="M210.58,41.55h3.83v.94H211.6V43.9h2.67v.94H211.6V46.4h3v1h-4Z"/><path class="cls-3" d="M218.29,41.55h.9l2.5,5.8h-1.18L220,46h-2.51l-.52,1.33h-1.15Zm1.32,3.58-.89-2.35-.91,2.35Z"/><path class="cls-3" d="M223.06,41.55h1V46.4h2.47v1h-3.5Z"/><path class="cls-3" d="M228.81,42.49H227v-.94h4.58v.94h-1.77v4.86h-1Z"/><path class="cls-3" d="M233.33,41.55h1v2.31h2.71V41.55h1v5.8h-1V44.78h-2.71v2.57h-1Z"/><path class="cls-4" d="M220.44,13.35a1.71,1.71,0,0,1-1.21-.5l-3.54-3.54-3.53,3.54a1.72,1.72,0,0,1-2.43-2.43l4.75-4.75a1.72,1.72,0,0,1,2.43,0l4.75,4.75a1.72,1.72,0,0,1,0,2.43A1.75,1.75,0,0,1,220.44,13.35Z"/><path class="cls-3" d="M229.08,36.48a8.91,8.91,0,0,0,5.49-1.87l.06,0v1.63h3.47V27.47a9,9,0,1,0-9,9Zm0-14.55a5.54,5.54,0,1,1-5.53,5.53A5.54,5.54,0,0,1,229.08,21.93Z"/><line class="cls-5" x1="119" y1="0.25" x2="119" y2="60.25"/></g></g></svg>